<svg id="Layer_1" data-name="Layer 1" xmlns="http://www.w3.org/2000/svg" viewBox="0 0 542.03 734.72">
    <defs>
        <style>
            .cls-1{fill:#01b4b4}.cls-2{fill:none}.cls-3{fill:#555}
        </style>
    </defs>
    <title>
        tree
    </title>
    <path class="cls-1" d="M228.51,72.46c-3.65-2.26-7.29-4.22-10.6-6.64-3.61-2.62-7.37-2.86-10.56-.22s-.56,5.77.49,8.63a7.86,7.86,0,0,1,.22,1.52c-5.16.36-10.07-3.81-15.07-.57-3.72,2.4-4.74,6.6-7.22,11.19,13.22-2.65,16,7.28,20.13,15.2,1.76,3.34-.36,6.44-2.15,9.28-1.9,3-3.6,6-2.95,9.78.26,1.47.41,3.27,1.74,3.92s2.17-1.16,3.28-1.8c.92-.54,1.43-1.79,2.9-1.66,0,2.38-1.54,4-2.83,5.63-1.65,2.12-3.72,4.85-6.23,4.44-2.36-.39-.84-4.13-2.18-6-1.64.17-2.34,1.76-3.63,2.44s-2,3.34-3.95,1.94a5.2,5.2,0,0,1-2.36-5.64c.42-1.6,1.12-3.12,1.67-4.68.36-1,1.73-2,.23-3a2.78,2.78,0,0,0-4,.81c-1.39,2-2.54,4.19-4.12,6.86-1.05-4.42-1.05-8,2.39-10.67s7.3-2.07,10.53.62c2,1.63,3.17,1.27,4.41-.59a37.27,37.27,0,0,0,2.71-4.18c3-6.18,1.46-8.81-5.21-9-2.5,0-5-.15-7.49-.26-7.48-.34-7.58-.36-6.44-7.6.57-3.6,1.55-7.13,2.44-10.68,1.72-6.88,5.76-11.15,13.23-11.26a2.94,2.94,0,0,0,3-2c2.61-6.66,7.94-8,14.26-7.06,3.86.57,5.39,0,4.26-4.57-2.66-10.73,6.14-22,17.27-22.11a9.24,9.24,0,0,0,6.57-2.62c3.11-2.76,6.65-4.83,10.86-2.47s6.72,5.82,5.92,11.06c-.51,3.31.07,6.71,3.39,8.13,3.48,1.49,6.45-.43,8.76-3.11,4.48-5.22,7.78-11.18,10.83-17.31a31.47,31.47,0,0,1,2.77-4.73c3.42-4.62,7.57-4.21,9.88,1a32.38,32.38,0,0,1,1.52,5.26c.41,1.61.72,3.24,1.18,5.36,3.4-1.73,6.67-3.29,9.82-5,1.84-1,2.67-.69,3,1.37.54,3.23,1.85,6.35,1.55,9.81-3.3,0-3.26-2.53-3.76-4.49-.57-2.24-1.63-2.61-3.56-1.42-2.12,1.32-4.42,2.36-6.46,3.77-2.57,1.77-3.31.6-3.87-1.84-.95-4.21-2.1-8.38-3.19-12.56-.07-.27-.39-.47-.73-.85-4.28,2.27-6.17,6.3-7.71,10.54a34,34,0,0,1-11.81,16.35c-3.3,2.43-6.83,3.45-10.7,1.32a9.76,9.76,0,0,1-5.34-9.92c0-.17,0-.34,0-.5.43-3.86,1.25-8-4-9.3-3.64-.9-7.2,2.6-8.54,8-.2.8-.32,1.62-.48,2.43-.43,0-.84,0-1.05-.14-6.78-5.22-7.74-5.29-13.84-.91-5.81,4.15-7.19,8.06-4.74,14.66,1.26,3.41,3.08,6.63,4.58,10C228.47,68.09,229.37,69.91,228.51,72.46ZM197.12,93.51c-1.35-2.19-2.91-3.32-5-3.56-1.55-.18-3.48,0-3.77,1.57-.33,1.78,1.75,2.16,3.09,2.45A8.52,8.52,0,0,0,197.12,93.51Z" transform="translate(-5.16 -7.51)"/>
    <path class="cls-1" d="M365.93,13.83c-5.28,1.55-8.88,4.79-12.6,7.81a78.55,78.55,0,0,1-10.85,8c-2.72,1.53-4.1,1.17-4.87-2a46,46,0,0,0-2.38-5.85c-4.5,5.18-.49,10.5-1.55,15.51-1.39-5.19-4.33-10.15-2.21-15.8.86-2.28,2.21-4.34,4.95-1.68a2.12,2.12,0,0,0,.87.48c2.47.66,2.85,4.64,5.51,4.22,3.5-.54,6.16-3.16,8.84-5.42,3.93-3.33,7.67-6.93,12.73-8.61,3-1,4.61-.34,4.91,3.2.44,5.41-1.9,9.82-4.86,13.82s-2,6.5,1.87,9.16c8.31,5.68,16.63,4.41,22.66-3.86,3.8-5.22,3.37-9.8-1.45-14.11-1.7-1.53-3.62-2.81-6-4.67a145.65,145.65,0,0,1,23.38-6.4c3.29-.67,5.24,1.35,5.39,4.92.13,3.24-.87,6.23-1.56,9.31-1.51,6.78,2.13,10.58,8.73,8.85,3.81-1,7.39-1.71,11.06.45,1.52.89,3.26.15,4.89-.12,1.41-.24,3.4-1.65,4.09-.16a4.48,4.48,0,0,1-1.68,5.34c-5.09,3.63-10.18,7.25-16.5,9.91,1.12-5.73,7.11-5.79,9.49-9.71A25.7,25.7,0,0,0,415.1,34c-7.37.63-10.61-2.61-10.08-10,.26-3.47.81-6.94,1.4-10.38.37-2.17-.4-2.78-2.39-2.28-.48.12-.95.32-1.43.43-9.83,2.16-9.83,2.16-8.9,12.09A17.68,17.68,0,0,1,373,42.79c-5.57-1-10.15-3.94-14.62-7.23-2.34-1.72-1.06-3,0-4.52C363.84,22.84,364.92,20.44,365.93,13.83Z" transform="translate(-5.16 -7.51)"/>
    <path class="cls-1" d="M419.78,64.1c-1.15,2.59-3.09,4.27-5.18,3.12-4.89-2.7-6.74.36-8.76,3.72a16,16,0,0,1-1.63,1.91c-2.92-7.25-2.94-7.29-10.57-4.54-2.78,1-6.13,1.79-5.7,5.8s3.13,6.32,6.88,6.84a33.56,33.56,0,0,0,9.44-.15c3.05-.45,4.12.63,4.77,3.43,1.12,4.85,2.87,9.57,3.89,14.44.8,3.78,2.52,4.83,6.22,3.92a21.56,21.56,0,0,1,6.95-.32c7.19.6,10.56,7.63,6.33,13.43-2.24,3.07-5.1,5.69-7.69,8.5-.57.61-1.27,1.39-2.1.87-1.22-.75-.37-1.7.08-2.55,2.15-3.94,4.08-8,6.5-11.79,2.13-3.31.64-4.15-2.32-4.86-7-1.71-15.13,1.6-18.74,7.81-.58,1-1.18,2-1.81,3-1.36,2.11-2.64,2.36-3.79-.18a7.48,7.48,0,0,0-.51-.86c-4.52-7.29-4.57-7.45,3.63-10,4.15-1.27,4.46-3.79,3.53-7.27-1.1-4.13-4.53-7.42-4.11-12.14.15-1.68-1.71-1.2-2.71-1.39-3.43-.63-6.94-.9-10.32-1.72-4.79-1.16-8.26-5.41-7.93-9.61.39-4.94,3.24-7.87,8.09-8.8q6.84-1.32,13.71-2.53C410.72,61.35,414.82,64.82,419.78,64.1Z" transform="translate(-5.16 -7.51)"/>
    <path class="cls-1" d="M326.85,57l9.23-7.22-.61-1.32L328,47.78c3.3-3.7,7.34-4.85,10.74-2.56,4.31,2.89-2.45,5.53-1.1,8.91,4.41.26,8.77-1.63,13.36-1.48C343.87,56.06,336.86,59.87,326.85,57Z" transform="translate(-5.16 -7.51)"/>
    <path class="cls-1" d="M315.36,61.52c6-6.22,7.37-13.74,5.82-23.07C327.92,46.64,324.37,59.45,315.36,61.52Z" transform="translate(-5.16 -7.51)"/>
    <path class="cls-2" d="M47,269.63c-2.12.06-3.14,1.64-3.93,3.35-.56,1.2-1.07,2.42-1.89,4.3a28.51,28.51,0,0,0,4.11-.52c2.64-.79,2.7-3.07,2.75-5.27C48,270.7,48.09,269.6,47,269.63Z" transform="translate(-5.16 -7.51)"/>
    <path class="cls-2" d="M77.12,285.47c-2.5.37-4.89,2-7.09,4.63H80.74C78.91,288.08,79.05,285.19,77.12,285.47Z" transform="translate(-5.16 -7.51)"/>
    <path class="cls-2" d="M118.73,280.91a3.25,3.25,0,0,0,3.72-3.15c.2-2-1-3.71-2.76-4.94a5.58,5.58,0,0,0-3.39,4.47C116,279.07,116.74,280.69,118.73,280.91Z" transform="translate(-5.16 -7.51)"/>
    <path class="cls-2" d="M136.05,165.69c2.47,1.64,3.63-.76,5.32-2.13-1.93-1.77-3.94-3.32-6.15-1.68C134,162.81,134.9,164.93,136.05,165.69Z" transform="translate(-5.16 -7.51)"/>
    <path class="cls-2" d="M170,232.05c1.47.53,3,1.55,4.34-.41s2.87-3.88,5-6.74c-3.67.57-6.08,1-8.5,1.31-1.48.21-3,.26-3,2.38A3.24,3.24,0,0,0,170,232.05Z" transform="translate(-5.16 -7.51)"/>
    <path class="cls-2" d="M164.21,224.42a14.24,14.24,0,0,0,.86-4.4,51.87,51.87,0,0,0,0-6c-.4-5.47-3-8.77-7-8.88-4.26-.12-8.11,3.66-9.06,9.5a43.63,43.63,0,0,1,11.47-7.2C162.3,213.31,161.84,219.16,164.21,224.42Z" transform="translate(-5.16 -7.51)"/>
    <path class="cls-2" d="M170.42,261.68c1.48,5,4.63,5.78,9.76,3.25-3.6-2.62-3.24-6.2-3.52-9.68-.13-1.59.28-4.33-2.29-4.11a12.2,12.2,0,0,0-6.79,2.6c-1.35,1.2.84,3.15,1.43,4.78C169.4,259.6,170.1,260.58,170.42,261.68Z" transform="translate(-5.16 -7.51)"/>
    <path class="cls-2" d="M141.6,235c1.85-.7,3.67-1.49,5.51-2.21a11.85,11.85,0,0,1,5.91-.4c5.15.68,5.91-.09,5.48-6.15-6.19,6-12.67,3.36-20.25.34,1.17,3.48,1.89,5.67,2.66,7.84C141,234.62,141.45,235,141.6,235Z" transform="translate(-5.16 -7.51)"/>
    <path class="cls-2" d="M155.56,224.38c3.49-2.84,2.32-7,2.36-12.07L143.4,224.15C148.12,225.45,152.06,227.24,155.56,224.38Z" transform="translate(-5.16 -7.51)"/>
    <path class="cls-2" d="M114.47,286.28c.32.22,1.19-.37,1.8-.58a5.12,5.12,0,0,0-.75-1.69c-2.72-2.67-3.36-6-2.92-10.6-2,1.7-4.67,2.37-3.82,4.35C110.11,280.87,111.45,284.24,114.47,286.28Z" transform="translate(-5.16 -7.51)"/>
    <path class="cls-2" d="M270.81,701.26l-1.9-.77a66.48,66.48,0,0,0,.23,10.65c.19,1.58-.59,4.21,2.43,3.92,8.23-.81,16.23,1.34,24.36,1.75a9.43,9.43,0,0,0,3.68-.36l-2.19-.22Z" transform="translate(-5.16 -7.51)"/>
    <path class="cls-2" d="M87.37,287.49c-1.9-2.6-3.35-4.58-5.19-7.08C80.66,285.42,82.07,287.42,87.37,287.49Z" transform="translate(-5.16 -7.51)"/>
    <path class="cls-2" d="M222.92,412.9c-.15-.32-.32-.63-.5-.94-1.47-.16-2.3-2.2-4.28-1.54a24.1,24.1,0,0,1,2.64,7.45l.92-4.19Z" transform="translate(-5.16 -7.51)"/>
    <path class="cls-2" d="M293.49,451.06l14.2-17a5,5,0,0,1-4.21-.15c-5.25-2.14-10.45-4.6-10.5-11.66a28.49,28.49,0,0,0-1-5.89c-.36-1.6.37-4-2.61-3.88-2.78.14-4.3,1.38-4,4.38s-1.26,4.08-4.1,4.24c-1.51.08-3.88-.71-4.38,1.35-1.3,5.41-5.2,5.89-9.62,5.65-1.9-.11-2.64.29-2.68,1.1l3.59,1.24Z" transform="translate(-5.16 -7.51)"/>
    <path class="cls-2" d="M220.56,418.88c-3.28-2.69-5.07-6.5-7.34-9.95-3.05-4.67-6-9.44-11.12-12.64,1.58,9.66,9,21.34,16.38,26.91l1.73-2.72Z" transform="translate(-5.16 -7.51)"/>
    <path class="cls-2" d="M312.24,417.24c-2.11.45-2.78,2.12-2.33,4.24.51,2.44,1.21,4.86.75,7.41a12,12,0,0,1-.71,2.5l2-2.42Z" transform="translate(-5.16 -7.51)"/>
    <path class="cls-2" d="M94.55,277.13c-.33,0-.66,0-1-.05-1.46-.11-1.88.38-1.89,2-.06,7.82,1.5,9.81,9.11,10.78,2.78.35,5.59.55,8.89.86C106.61,278.18,105.38,277.12,94.55,277.13Z" transform="translate(-5.16 -7.51)"/>
    <path class="cls-2" d="M79.06,318c-2.28-.18-1.22,2.19-1.7,3.38a21,21,0,0,0-.8,3.83l-1.28.09c-.46-2.19-1-4.36-1.38-6.56-.24-1.42-.72-2.35-2.22-1.41-3.11,1.92-5.8,4.21-4.6,8.43.85,3,2,5.9,6,5.27,4.74-.76,10.39-6.31,9.65-9.39A4.43,4.43,0,0,0,79.06,318Z" transform="translate(-5.16 -7.51)"/>
    <path class="cls-2" d="M312.24,417.24l1.74.33A1.68,1.68,0,0,0,312.24,417.24Z" transform="translate(-5.16 -7.51)"/>
    <path class="cls-2" d="M224.67,411.77l5.74,3L243.58,422l12.8,4.42a17,17,0,0,0-10.61-7c-9-2-14.62-7.64-17.61-16a56.53,56.53,0,0,0-9.77-16.71c-1.63-2-3.5-3.7-6.62-4,1.07,6.32,5.11,10.71,8.14,15.58,2.66,4.28,3.77,8.75,2.61,13.72.31.21.61.42.9.64Z" transform="translate(-5.16 -7.51)"/>
    <path class="cls-2" d="M182,258.26a4.55,4.55,0,0,0,4-1.63,7,7,0,0,0,1.7-5.4c-.56-1.62.11-4.48-1.78-5.43-1.63-.82-3.93.72-5.35,1.92-2.51,2.12-.3,4.9-.18,7.37C180.46,256.19,180.22,258,182,258.26Z" transform="translate(-5.16 -7.51)"/>
    <path class="cls-1" d="M469,91.69c-4.91,7.55-8.91,14.66-9.78,23.34C467.59,110,471.84,100.28,469,91.69Z" transform="translate(-5.16 -7.51)"/>
    <path class="cls-2" d="M151.78,264.31c-1.55-1.38-2.82-2.51-4.59.12-1.65,2.44-.82,3.4,1.33,4.43,1.78.86,3.43,2,5.18,2.88.8.42,1.67,1.52,2.58.54.63-.66.79-1.75,1.26-2.88C156.2,267.09,153.7,266,151.78,264.31Z" transform="translate(-5.16 -7.51)"/>
    <path class="cls-2" d="M213,252.23a17.41,17.41,0,0,0,8.5-3.23c2.35-1.86,4.88-4,2-7.31a5.73,5.73,0,0,0-8.74-.05c-2.3,2.45-3.36,5.63-4.55,8.7C209.4,252.45,210.85,252.44,213,252.23Z" transform="translate(-5.16 -7.51)"/>
    <path class="cls-2" d="M162.13,241a6.28,6.28,0,0,0-.4,1.84c.19,2.3-1.76,4.74.39,6.87a1.4,1.4,0,0,0,1.22-.32c.88-2.81,1.78-5.67-.65-8.22C162.61,241.11,162.44,241.12,162.13,241Z" transform="translate(-5.16 -7.51)"/>
    <path class="cls-2" d="M235.24,232.14c1.57-.25,2.11-1.63,1.89-3-.26-1.63-1.58-2.07-3-1.79-3.05.6-5.63,1.82-6.32,5.4C230.47,233.57,232.85,232.52,235.24,232.14Z" transform="translate(-5.16 -7.51)"/>
    <path class="cls-2" d="M272.71,310.84c6.1-4.14,6.59-5.81,3.43-12.16C274,302.62,271.54,306.06,272.71,310.84Z" transform="translate(-5.16 -7.51)"/>
    <path class="cls-2" d="M70.43,403.18c-1.77,1.36,0,2.56.42,3.78,2.17,5.7,5.66,4,9.91,1.18-2.1-1.88-3.82-3.6-5.73-5.06A3.62,3.62,0,0,0,70.43,403.18Z" transform="translate(-5.16 -7.51)"/>
    <path class="cls-2" d="M329.5,142.26c1.12-.51,3.32.75,3.33-1.63,0-1.82-1.78-2.2-3.22-2.29s-3,.58-3.05,2.4C326.52,142.86,328.28,142.11,329.5,142.26Z" transform="translate(-5.16 -7.51)"/>
    <path class="cls-2" d="M353.51,214.85a3.47,3.47,0,0,0,2.38-2.86,1.9,1.9,0,0,0-.74-1.6c-1.58-.74-2.27.82-3.2,1.58s-2.2,1.43-2.6,3.07A5.73,5.73,0,0,0,353.51,214.85Z" transform="translate(-5.16 -7.51)"/>
    <path class="cls-2" d="M61.75,382.62a3.89,3.89,0,0,0,4.14-2.13c.35-.63,1.2-1.37.28-2.16a5,5,0,0,0-4.69-.94,7,7,0,0,0-4.2,3.2C58.44,382.11,60.13,382.4,61.75,382.62Z" transform="translate(-5.16 -7.51)"/>
    <path class="cls-2" d="M327.89,433.22l1.21.36a3.12,3.12,0,0,0-.66-1.19,9,9,0,0,1-1.7-10.11c.81-2,0-2.69-2-3.44-2.24-.85-3.37-.66-3.95.05l.51.1Z" transform="translate(-5.16 -7.51)"/>
    <path class="cls-2" d="M325.43,406.13c-4.62-.27-7.71,2.88-7.1,5.75.9,4.21,6.24,3.16,9.59,3.74,3.8.66,2.53-3.49,2.85-5.45C331.53,405.51,327.1,407.24,325.43,406.13Z" transform="translate(-5.16 -7.51)"/>
    <path class="cls-2" d="M182.79,413c-.74-1.92-.8-3-1.34-3.35-5.28-3.47-10.58-6.93-16-10.15-2.39-1.42-2.61.81-2.27,2.18.89,3.54,2.11,7,3.25,10.45.56,1.68,1.85,1.18,2.85.62C173.35,410.46,177.5,410.7,182.79,413Z" transform="translate(-5.16 -7.51)"/>
    <path class="cls-2" d="M171.32,419.05c3.48,7.81,10.68,10.65,16.53,6.51C182.85,422,178.13,418.23,171.32,419.05Z" transform="translate(-5.16 -7.51)"/>
    <path class="cls-2" d="M173.83,396.31c5.42,0,5.86-.11,6-1.62.27-3.12-3.95-8.15-6.95-7.87-2.48.23-5.81.12-6.65,3S170.08,396.29,173.83,396.31Z" transform="translate(-5.16 -7.51)"/>
    <path class="cls-2" d="M149,403.28c-2.46.48-3.46,2.46-3.88,4.66a3.46,3.46,0,0,0,2.24,4c2.38,1.07,3.17-1.14,4.35-2.34,1.36-1.4,2.54-3,4.11-4.88C153.23,403.47,151.15,402.85,149,403.28Z" transform="translate(-5.16 -7.51)"/>
    <path class="cls-2" d="M180.68,377c1.51.52,4-.44,3.52-2.27-.75-3-2.12-6.06-6-6.38-2.77.2-4.56,1.76-4.31,4.43C174.25,376.75,178.15,376.14,180.68,377Z" transform="translate(-5.16 -7.51)"/>
    <path class="cls-2" d="M201,423.43c-2.53.77-6.15,1.06-5.44,5.08.35,2,.13,5.84,3.12,5.21,3.29-.69,4.61-4.38,5.77-7.45C204,424.23,202.92,422.84,201,423.43Z" transform="translate(-5.16 -7.51)"/>
    <path class="cls-2" d="M407.4,448.36c5.73.79,6.61-2.32,7.46-6.92Z" transform="translate(-5.16 -7.51)"/>
    <path class="cls-2" d="M260.7,387.65c-3.16.2-6.08,1.49-6.22,6.34,5-5.35,6.29-1,8,2.33.68,1.32,1.41,2.62,2.21,3.88s2.12,1.57,2.82.38c1.47-2.53,3.6-5.29,2.31-8.28C268.2,388.55,264.45,387.41,260.7,387.65Z" transform="translate(-5.16 -7.51)"/>
    <path class="cls-2" d="M281.08,416.2l-5-8.68C275.12,411.67,275.28,415.12,281.08,416.2Z" transform="translate(-5.16 -7.51)"/>
    <path class="cls-2" d="M399.84,387.47l13.32-9.35c-2.13-1.29-3.7-2.37-5.51-1.34-4.51,2.55-7.77,1.31-10.47-4.35,0,5.48,0,9.45,0,13.42C397.21,387.69,397.76,388.92,399.84,387.47Z" transform="translate(-5.16 -7.51)"/>
    <path class="cls-2" d="M207.56,356c-2.62.12-1.85,4-2.65,5.92,0,3.75,2.86,6,5.22,5.8,2.7-.27,3.82-4,3.78-6.71C213.85,357.21,210.05,355.85,207.56,356Z" transform="translate(-5.16 -7.51)"/>
    <path class="cls-2" d="M302.22,420.29c-2,.27-4.59-.42-4.48,3.07.09,2.87,3.89,6.95,6.51,6.42s1.92-3.19,2.08-4.92C306.58,422.18,305.87,419.75,302.22,420.29Z" transform="translate(-5.16 -7.51)"/>
    <path class="cls-2" d="M286,396.19c-5.46,0-8.44,2.1-8.29,5.78s4.53,7.29,8.84,7.26c4.46,0,8.21-3.27,8.18-7.09S291.7,396.17,286,396.19Z" transform="translate(-5.16 -7.51)"/>
    <path class="cls-2" d="M252.53,361.21c-.58-1-1.14-2.85-2.75-.92-2.84,3.39-6.9,5.06-10.4,7.52a15.27,15.27,0,0,0-6.37,8.57c-.55,2-.09,3.3,2.41,2.94a80.75,80.75,0,0,0,8.81-1.38C250.64,376.24,255.4,366.45,252.53,361.21Z" transform="translate(-5.16 -7.51)"/>
    <path class="cls-2" d="M219.25,374.1c-.63,0-1.57-.1-1.86.26-1,1.19.25,2.16.78,3,.91,1.47,1.23,3.41,3.72,4.71,0-2.26.07-3.9,0-5.54A2.47,2.47,0,0,0,219.25,374.1Z" transform="translate(-5.16 -7.51)"/>
    <path class="cls-2" d="M232.28,388.37l-5-6.75C226.63,388.75,227.21,389.45,232.28,388.37Z" transform="translate(-5.16 -7.51)"/>
    <path class="cls-2" d="M259.1,421.57c2.73-2.5,5.92-4.62,7.21-8.33C262.63,415,260,417.51,259.1,421.57Z" transform="translate(-5.16 -7.51)"/>
    <path class="cls-2" d="M461.21,411.53c-1.09-6.31,2.61-10.4,5.09-15.13.72-1.36.91-2.42-.73-3.27-1.4-.74-2.61-1.49-3.78.37-1.4,2.25-3.08,4.34-4.37,6.65-1.75,3.13-3.25,4.42-6.21.93-3.37-4-7.74-4-12.19-1.65-.79.42-2.14.72-1.48,2.06,2,4,3.57,8.35,6.3,11.78,1.54,1.93,4.47-1,6.89-1h5.14C457.6,411.53,461.56,413.59,461.21,411.53Z" transform="translate(-5.16 -7.51)"/>
    <path class="cls-2" d="M402.13,419.64c-2.07.47-5,1-5.44,3.55-.44,2.82,2.63,2.38,4.28,2.85,2.57.73,2.8-1.5,3.24-3.34C404.1,421.3,403.89,419.24,402.13,419.64Z" transform="translate(-5.16 -7.51)"/>
    <path class="cls-2" d="M377.24,440.86c-2.65-3.15-4.79-1.47-7.29-.34-1.69.76-2.84,1.74-2.27,3.78.87,3.16,3.65,2.13,5.76,2.6a4.21,4.21,0,0,1,1.09.62c-.43,2.45-2.86,3.82-2.92,6.46,5.48,1,10.52-.68,16.93-2C384.26,447.81,380.41,444.62,377.24,440.86Z" transform="translate(-5.16 -7.51)"/>
    <path class="cls-2" d="M439.28,444.66l5.17-6c-3.1,0-5.74-.55-7.07,1C436.31,440.93,437.8,442.93,439.28,444.66Z" transform="translate(-5.16 -7.51)"/>
    <path class="cls-2" d="M421.94,448c-1.95,2.22-3.48,3.74-4.74,5.46-1.57,2.14-4.87,4.34-2.3,7.23,2.92,3.29,5.66-.15,8.36-1.37,1.51-.68,1.75-1.72,1.21-3.24C423.64,453.71,423,451.32,421.94,448Z" transform="translate(-5.16 -7.51)"/>
    <path class="cls-2" d="M408.73,402.52c-.8-2.3-2.13-4.15-4.88-4.32s-4.2,1.55-5.07,3.91a29.43,29.43,0,0,1-4.85,8.66c-1.19,1.43-2.46,2.71-4.55,2.64-1.09,0-2.33.78-3.18-.51s0-2.19.59-3.18c2.32-3.65,4.52-7.37,7-10.93,1.47-2.13.68-2.93-1.42-3.25a9.59,9.59,0,0,0-10,4.24c-4.54,6.57-4.48,14.08-4.11,21.61.12,2.45,1.74,1.39,3.21,1.41,2.58,0,5.71-5.32,7.87.65.2.56,1.35-.42,2-.85,4.92-3.5,9.56-7.29,12-13.05,1.4-3.33,3.16-4.56,7.08-.55C409.54,405.7,409.27,404.06,408.73,402.52Z" transform="translate(-5.16 -7.51)"/>
    <path class="cls-2" d="M485.63,409.45c-2.48,2.56-4.56,5.4-8.84,5.19,1.36-3.41,6-5.61,5.07-8.29s-5.06-4.47-7.76-6.67c-2-1.62-4.12-3.65-5.4.5-.83,2.67-6.85,5.67,0,8.18,4.79,1.75,4.2,4.73,2.41,8.19a10.56,10.56,0,0,1-5.53,4.77c-5.71,2.5-6.15,3.75-4.05,10.32,1.32-3,2.51-5.65,3.78-8.49,5.27,4.47.38,9.05.29,13.86,8.21-2.43,12.67-8.19,16.3-14.89,2.05-3.79,3.74-7.81,7.28-10.61,2.15-1.71,3.68-2,4.81,1.05.92,2.51,2.14,4.91,3.56,8.12a30.85,30.85,0,0,0,1.65-3.61c1.25-4.4-1.7-9.3-7.46-12.12C487.18,402.71,487.36,407.66,485.63,409.45Z" transform="translate(-5.16 -7.51)"/>
    <path class="cls-2" d="M435.56,454.72c7.92-.2,13.26-4.16,18.27-8.79C447.27,447.35,440,447.32,435.56,454.72Z" transform="translate(-5.16 -7.51)"/>
    <path class="cls-2" d="M388.72,382.32c.45-4.14.8-8.28,1.19-12.42.27-4.55.27-4.53-4.29-4.84s-9.23.29-13.84-.94c-4.07-1.09-5.25,2.44-6.76,5.22-1.65,3,.72,4.2,2.52,5.52,5.81,4.29,13.09,5.65,19.17,9.49C388.75,385.64,388.6,383.42,388.72,382.32Z" transform="translate(-5.16 -7.51)"/>
    <path class="cls-2" d="M417.81,404.71a4.08,4.08,0,0,0-3.73,2.07c-3.2,4.66-1.52,8.63,1.34,12.74,1.47,2.12,2.21,2,3.42.06.82-1.32,1.2-2.72,1-5.42-.22-1.3-.54-3.76-1.06-6.18C418.58,406.85,419.82,405,417.81,404.71Z" transform="translate(-5.16 -7.51)"/>
    <path class="cls-2" d="M368.17,422.17c-3.72,4.47-7.45,8.82-5.73,17,2.41-2.84,4-4.9,5.79-6.75C373,427.55,373,427.59,368.17,422.17Z" transform="translate(-5.16 -7.51)"/>
    <path class="cls-2" d="M414.34,400.57l12.46-10.24C416.49,386.84,412.77,389.83,414.34,400.57Z" transform="translate(-5.16 -7.51)"/>
    <path class="cls-2" d="M440.11,417.22a9.81,9.81,0,0,0-5.54-2.93c-1.84-.28-3.83.88-3.67,2.47.25,2.4,2.73,4,4.8,4.42S438.62,419,440.11,417.22Z" transform="translate(-5.16 -7.51)"/>
    <path class="cls-2" d="M382.66,440.81c-.33-5-.59-8.9-.89-13.39-2.44,1.38-5.78,2.17-5.61,4.12C376.47,435,379.09,437.81,382.66,440.81Z" transform="translate(-5.16 -7.51)"/>
    <path class="cls-2" d="M415.07,383.77c-.08,2,.71,2.71,2.62,2.37l10.58-1.82,0-1c-3.55-.66-7.1-1.28-10.63-2C415.59,380.92,415.15,382,415.07,383.77Z" transform="translate(-5.16 -7.51)"/>
    <path class="cls-1" d="M295.93,716.81c-8.13-.41-16.13-2.56-24.36-1.75-3,.29-2.24-2.34-2.43-3.92a66.48,66.48,0,0,1-.23-10.65l-5.36-2.16a6.59,6.59,0,0,1-2.72-.7c-6.46-2.84-12.41-2.16-16.74,4.14-1.92,2.79-3.62,2.53-5.91.29-3.07-3-5.91-6.64-11.26-6.59l3.68,8.43c-.41.21-.58.39-.69.35-1.39-.5-2.79-1-4.17-1.56a46.19,46.19,0,0,0-36.46.24c-3,1.25-2.67,2.4-.72,4.16,2.42,2.17,5.55,3,8.35,4.42,2.09,1.08,4.65,2.44,4.65,4.81,0,2.76-3.25,2.22-5.08,2.83C186,722.66,175.77,726.63,168,735c-3.32,3.54-2.82,5.34,1.94,6.77a7.5,7.5,0,0,0,3.92.37,62.93,62.93,0,0,0,25.92-14.45c-9.76,2.67-17.35,11.63-28.7,9.54,7.71-7.59,16-13.92,27.46-14,2.3,0,5.06,1.14,6.15-2.46,1-3.36.85-6.25-2.06-8.54s-5.68-4.4-9-7c11.26-4.11,21.65-4,32,1,5.49,2.67,9.8,7.28,17.28,6.36,4.43-.55,5.34-.44,4.86-4.91-.75-7,4-10.1,10.54-7.35,5.1,2.13,7.17,7.34,5.52,13.94-1.56,6.3-1.19,6.68,5.2,5.56,7-1.22,13.94-.9,20.92-.14,7.78.85,15.56,1.67,23.33,2.67,3.81.49,6.26-.28,7.1-4.6.5-2.59,1.93-5.22,5.44-4.67,7.93,1.23,16-1.16,23.89,1,.72.19,1.83.58,2.12-.44a3.06,3.06,0,0,0-.6-2.27,11.35,11.35,0,0,0-2.5-2.39c-3.05-2.2-2.84-4.48-.49-7.09,4.16-4.63,9.62-5.07,15.15-.87,5.2,4,9.5,8.84,13.74,13.77s9.09,8.88,15.63,10.12c1.44.28,3.88,1.31,4.25-1,.81-5.1,3.93-3.19,6.67-2.62,2.93.62,5.87,1.24,8.73,2.09,1.3.38,3.41,0,3.58,1.92.14,1.68-1.63,2.38-2.92,3.07-2.85,1.53-5,3.34-3.5,7.57,4.76-3.64,10.3-5.8,13.69-10.82.88-1.31,2.44-3-.52-3.66-9.24-2.11-18.52-5.72-28-4-7.14,1.3-11.36-1.22-15.48-6.14-4.5-5.36-9.22-10.58-15.35-14.17-8.18-4.79-16.38-2.32-20.6,6-3.66,7.27-3.66,7.28-11.64,6.12-1.65-.24-3.26-.68-4.9-1a6,6,0,0,0-6.79,3,34.46,34.46,0,0,1-2.12,3.39c-2.46,3.22-5.65,3.59-9.4,2.59l-8.76-.87A9.43,9.43,0,0,1,295.93,716.81Z" transform="translate(-5.16 -7.51)"/>
    <path class="cls-1" d="M546.74,252.68c-3,3.11-6.36,3.55-10.18,3-9.6-1.37-15.49,6.61-11.66,15.61.93,2.18,2.14,4.25,3.26,6.46a50.23,50.23,0,0,0-5.23-.47c-6.44.13-8.12,2.37-6.48,8.47,1.47,5.53,4.77,8.46,10.46,9.22,3.57.47,7.15.86,11,1.32-1.21,4.21-4.49,4.59-7.49,5.4s-6.58,1.14-8,5c2.75.72,5.17-.35,7.63-.31,3,.06,7.4-1.76,8.5.31,1.68,3.18-.94,7-2.95,10.05-4.12,6.3-5.6,6.49-10.61.84-2.12-2.4-3.33-1.8-5,.13-3,3.4-5.07,7.41-7.28,11.32-2.86,5.06-5.6,9-13.07,7.46-7.78-1.66-13.08,3.36-14.63,11.54-1.36,7.2,1.49,11.48,9.33,14.11,1.26.42,3.44-.1,3.25,2.1a4.47,4.47,0,0,1-3,3.77,19.46,19.46,0,0,1-4.84,1.05,23.93,23.93,0,0,0-10.31,3.5c-4.57,2.77-4.82,7.22-.67,10.55,4.74,3.8,11.41,2.76,15.88-2.67a76.7,76.7,0,0,1-9,1.42c-2.36.1-5-.83-5.63-3.32-.54-2.17,1.79-3.32,3.4-4.45a8.44,8.44,0,0,1,6.12-1.8c6.52,1.17,10.32-1.61,12.31-7.61a17.66,17.66,0,0,1,1.41-2.64c.7-1.34,1.46-2,3.14-1.14,3.32,1.65,6.46,3.43,8.76,6.44s2.88,5.45-.7,8a14.23,14.23,0,0,0-5.45,7c-1.57,4.59-5.19,6.57-9.61,7.79-8.63,2.38-17.35,1.94-26.07,1.1-5.61-.54-6.94-3.08-4.43-7.44-8.86,1.29-21-3.33-22.47,13.65-3.6-6.07-7.7-6.34-12.18-5.1a15.78,15.78,0,0,1-.37-1.67c-.42-3.72,3.08-8.5,0-10.78-2.78-2.06-7.67-1.37-11.64-1.71-2.26-.2-4.4-.48-5.4-2.82-2.15-5-5.55-5.25-9.84-2.83-2.64,1.49-4,.57-4.3-2.4-.24-2.24-1.07-4.18-3.63-4.83-5.79-1.47-11.55-3.12-17.38-4.46a27.28,27.28,0,0,0-12.86.09c-5.52,1.38-6.78,5.85-7.77,10.53-.93,4.4,3.16,4.47,5.39,6a79.5,79.5,0,0,0,9.52,5.47c3.21,1.56,3.69,2.89.48,5-1.66,1.09-3.73,3-1.7,4.78,1.57,1.4,2.64-1.31,3.67-2.33,4.95-4.91,5-5,9.46.71-7.61,3.78-10.89,10.41-12,18.42-.33,2.31-.74,4.6-1,6.92-.32,2.92-.91,4.83-4.57,3-3-1.51-5.37-.45-6.94,2.68-2.32,4.62-4.54,9.21-5.51,14.38-1.19,6.3-4.89,9.91-10.83,11.27-.7-4,2.75-5.33,4.89-7.42,4.13-4,4.12-7.82-.12-11.44-3.22-2.75-6,.27-8.77.93-5.61,1.34-5.56,1.6-5-4,.14-1.34.44-2.86-.88-3.65-1.76-1-2,1.12-3,1.75s-1.13,2.49-3.06,2.15c0-4.8,2.38-9,3.28-13.52,1.45-7.28-1.51-10.78-8.95-10.53-5.27.18-9.22,2.36-11.73,7.11a13.59,13.59,0,0,1-6.09,6.4c-4.14,1.94-6.14,1.09-7.21-3.2q-1.26-5.08-2.24-10.25c-1.53-8.15-3.48-10.39-11.62-9.43a18.35,18.35,0,0,1-16.8-6.1c-3.34-3.56-7.12-4.62-11.7-2.38-1.17.57-2.67,1.77-3.91-.24-1.73-2.81-3.85-5.34-1.32-9a37.1,37.1,0,0,0,3.54-7.69c1.18-3,2.07-6.53-.58-8.89s-6.15-1.57-9.36-.19c-5.66,2.41-11.34,4.8-17.07,7-4.73,1.84-8.56.55-10-4.16-1.64-5.17-5.75-7.09-9.8-9.26-3.21-1.72-6-.87-7.12,2.77s-3.17,4.85-7.07,4.13c-5.57-1-11.49-2.55-15.31,4-.63,1.08-2.54,1.49-3.93,2-5.39,2-7.42,6.53-5.14,11.87a56.32,56.32,0,0,0,2.87,5.2c-9.14,3.72-9.14,3.72-12.57,12.92-.3.77-.73,1.5-1,2.28-.85,2.67-2.58,3.64-5.32,3a12.7,12.7,0,0,0-12.68,4c-1.21,1.27-2.48,2-4.37,1.06-6.95-3.6-9.25-.22-11.42,5.65-1.09,3-1.8,6.08-3.71,8.7-2.25,3.07-5.37,4.2-8.8,2.88s-.11-3.51-.18-5.3c-.13-3.17-1.41-5.74-4.36-6.58-3.49-1-3.9,2.18-4.68,4.49-.68,2-1.25,4.11-2.06,6.79l-9.78-8c.18,5.82,3,8.57,7,9.89,13.34,4.43,22.21,8.68,30.57-11.31,2.31-5.51,6.43-5.52,10-.29.74,1.09,1.12,2.43,1.88,3.5a11,11,0,0,0,8.21,4.23c2.6.24,1.91-3.33,3.19-4.89a11,11,0,0,0,.74-1.3,6.05,6.05,0,0,1,4.75-3.28c2.62-.14,2.17,2.5,2.92,4,5.54,10.85,13.5,18.11,26.48,17.82a5.13,5.13,0,0,1,4.32,1.78c5.14,5.44,5.31,5.39,11.25.42,3.75-3.14,6.92-4.65,10.28-4.64l4.12-6.47c-7.43-5.57-14.8-17.25-16.38-26.91,5.11,3.2,8.07,8,11.12,12.64,2.27,3.45,4.06,7.26,7.34,9.95l.22-1a24.1,24.1,0,0,0-2.64-7.45c2-.66,2.81,1.38,4.28,1.54l-.08-.15.18.12c1.16-5,0-9.44-2.61-13.72-3-4.87-7.07-9.26-8.14-15.58,3.12.32,5,2,6.62,4a56.53,56.53,0,0,1,9.77,16.71c3,8.38,8.63,14,17.61,16a17,17,0,0,1,10.61,7l8.24,2.84c0-.81.78-1.21,2.68-1.1,4.42.24,8.32-.24,9.62-5.65.5-2.06,2.87-1.27,4.38-1.35,2.84-.16,4.43-1.23,4.1-4.24s1.18-4.24,4-4.38c3-.15,2.25,2.28,2.61,3.88a28.49,28.49,0,0,1,1,5.89c0,7.06,5.25,9.52,10.5,11.66a5,5,0,0,0,4.21.15l2.26-2.69a12,12,0,0,0,.71-2.5c.46-2.55-.24-5-.75-7.41-.45-2.12.22-3.79,2.33-4.24a1.68,1.68,0,0,1,1.74.33l6.82,1.32c.58-.71,1.71-.9,3.95-.05,2,.75,2.8,1.4,2,3.44a9,9,0,0,0,1.7,10.11,3.12,3.12,0,0,1,.66,1.19l5.17,1.55.69.63a3.18,3.18,0,0,1,2.83.15c3.15,1.43,6.55,3.5,5.52,8.3-.74,3.44-1,7-1.55,11.23l19.76-11.1c1.16,3,2.55,5.7,3.21,8.56,1,4.5,3.51,6,7.86,4.83,9.9-2.75,19.45-1.16,28.86,2.26,2.92,1.06,6.23.47,9,2.52,6.55,4.87,8.76,4.75,15.52-.22,1.85-1.36,3.42-3.35,6-3.12,8,.7,14.56-2.92,20.76-7.27,7.34-5.17,14.14-11.06,21.9-15.69,4.64-2.78,7.72-7.26,10.14-12.12,1-2.08,2.25-4.08,3.47-6,.5-.82,1.06-2,2.16-1.82s1.72,1.46,2.21,2.52c1.54,3.36-1.68,5.37-2.56,8.12,1.56.29,2.88.45,4.16.79,7.58,2.06,10.62.43,12.84-6.9,1.68-5.54.15-10.25-3.95-14.06a79.6,79.6,0,0,0-7.21-5.35c-1.6-1.17-3.79-2.15-3.45-4.48.39-2.71,3.12-2,4.87-2.43,5.29-1.22,10.56-2.52,13.52-7.56a35.68,35.68,0,0,1,7.88-9.57c3.5-2.93,3.95-6.42,1.24-10.13-2.16-2.95-4.05-6.32-7.3-8.11-3.58-2-5.5-4.49-4.54-9.16-4.5,2.48-8.33,4.8-12.36,6.72-3.87,1.86-6.59.47-7.47-3.63-1.12-5.17,1.21-9.07,5-12.26,3.19-2.67,6.51-2.11,9.66.06s5.13,1.57,7.06-1.84c3.73-6.59,7.9-12.93,12.16-19.81,2.23,3.48,4.11,6.22,5.8,9.08,1.31,2.21,2.31,2.47,3.72.07,3.2-5.46,6.58-10.82,9.8-16.26,1.21-2,2.41-4.61,1.07-6.62-2.05-3.09-1.51-5.94-.6-9,.67-2.27.06-3.41-2.48-3.49-3.82-.11-7.64-.28-11.44-.66-4-.39-6.92-2.3-8-6.39-1.34-5-.43-5.93,4.46-4.75,1.78.43,3.54.92,5.34,1.27,1.23.25,2.72,1.51,3.68.33,1.1-1.34.77-3.23-.14-4.7-1.66-2.69-3.51-5.26-5.24-7.9-1.9-2.91-1.33-5.7.55-8.37s4.19-3.77,7.32-3.09c2.46.54,4.9,1.11,7.41.47C546.42,258.36,548,256.75,546.74,252.68ZM151.68,409.61c-1.18,1.2-2,3.41-4.35,2.34a3.46,3.46,0,0,1-2.24-4c.42-2.2,1.42-4.18,3.88-4.66,2.18-.43,4.26.19,6.82,1.45C154.22,406.62,153,408.21,151.68,409.61Zm26.51-41.26c3.89.32,5.26,3.43,6,6.38.47,1.83-2,2.79-3.52,2.27-2.53-.86-6.43-.25-6.8-4.22C173.63,370.11,175.42,368.55,178.19,368.35Zm-12,21.48c.84-2.89,4.17-2.78,6.65-3,3-.28,7.22,4.75,6.95,7.87-.13,1.51-.57,1.63-6,1.62C170.08,396.29,165.4,392.66,166.22,389.83Zm3.05,22.92c-1,.56-2.29,1.06-2.85-.62-1.14-3.46-2.36-6.91-3.25-10.45-.34-1.37-.12-3.6,2.27-2.18,5.43,3.22,10.73,6.68,16,10.15.54.36.6,1.43,1.34,3.35C177.5,410.7,173.35,410.46,169.27,412.75Zm2,6.3c6.81-.82,11.53,3,16.53,6.51C182,429.7,174.8,426.86,171.32,419.05Zm33.12,7.22c-1.16,3.07-2.48,6.76-5.77,7.45-3,.63-2.77-3.19-3.12-5.21-.71-4,2.91-4.31,5.44-5.08C202.92,422.84,204,424.23,204.44,426.27Zm5.69-58.58c-2.36.24-5.2-2.05-5.22-5.8.8-2,0-5.8,2.65-5.92s6.29,1.24,6.35,5C214,363.72,212.83,367.42,210.13,367.69Zm11.76,14.39c-2.49-1.3-2.81-3.24-3.72-4.71-.53-.85-1.75-1.82-.78-3,.29-.36,1.23-.3,1.86-.26a2.47,2.47,0,0,1,2.62,2.44C222,378.18,221.89,379.82,221.89,382.08Zm5.36-.46,5,6.75C227.21,389.45,226.63,388.75,227.25,381.62Zm17-3.68a80.75,80.75,0,0,1-8.81,1.38c-2.5.36-3-.91-2.41-2.94a15.27,15.27,0,0,1,6.37-8.57c3.5-2.46,7.56-4.13,10.4-7.52,1.61-1.93,2.17-.12,2.75.92C255.4,366.45,250.64,376.24,244.23,377.94Zm14.87,43.63c.87-4.06,3.53-6.62,7.21-8.33C265,417,261.83,419.07,259.1,421.57Zm8.41-21c-.7,1.19-2.06.81-2.82-.38s-1.53-2.56-2.21-3.88c-1.71-3.31-3-7.68-8-2.33.14-4.85,3.06-6.14,6.22-6.34,3.75-.24,7.5.9,9.12,4.65C271.11,395.29,269,398.05,267.51,400.58Zm8.61,6.94,5,8.68C275.28,415.12,275.12,411.67,276.12,407.52Zm10.4,1.71c-4.31,0-8.7-3.57-8.84-7.26s2.83-5.76,8.29-5.78c5.73,0,8.7,2,8.73,5.95S291,409.2,286.52,409.23Zm19.81,15.63c-.16,1.73.59,4.38-2.08,4.92s-6.42-3.55-6.51-6.42c-.11-3.49,2.48-2.8,4.48-3.07C305.87,419.75,306.58,422.18,306.33,424.86Zm24.44-14.69c-.32,2,1,6.11-2.85,5.45-3.35-.58-8.69.47-9.59-3.74-.61-2.87,2.48-6,7.1-5.75C327.1,407.24,331.53,405.51,330.77,410.17Zm66.41-37.74c2.7,5.66,6,6.9,10.47,4.35,1.81-1,3.38.05,5.51,1.34l-13.32,9.35c-2.08,1.45-2.63.22-2.65-1.62C397.14,381.88,397.18,377.91,397.18,372.43ZM418.82,408c.52,2.42.84,4.88,1.06,6.18.16,2.7-.22,4.1-1,5.42-1.21,2-1.95,2.06-3.42-.06-2.86-4.11-4.54-8.08-1.34-12.74a4.08,4.08,0,0,1,3.73-2.07C419.82,405,418.58,406.85,418.82,408Zm-32.11-23.63c-6.08-3.84-13.36-5.2-19.17-9.49-1.8-1.32-4.17-2.48-2.52-5.52,1.51-2.78,2.69-6.31,6.76-5.22,4.61,1.23,9.23.62,13.84.94s4.56.29,4.29,4.84c-.39,4.14-.74,8.28-1.19,12.42C388.6,383.42,388.75,385.64,386.71,384.35Zm-4.94,43.07c.3,4.49.56,8.42.89,13.39-3.57-3-6.19-5.78-6.5-9.27C376,429.59,379.33,428.8,381.77,427.42ZM362.44,439.2c-1.72-8.21,2-12.56,5.73-17,4.86,5.42,4.82,5.38.06,10.28C366.43,434.3,364.85,436.36,362.44,439.2ZM371.61,454c.06-2.64,2.49-4,2.92-6.46a4.21,4.21,0,0,0-1.09-.62c-2.11-.47-4.89.56-5.76-2.6-.57-2,.58-3,2.27-3.78,2.5-1.13,4.64-2.81,7.29.34,3.17,3.76,7,6.95,11.3,11.09C382.13,453.3,377.09,455,371.61,454ZM401,426c-1.65-.47-4.72,0-4.28-2.85.4-2.52,3.37-3.08,5.44-3.55,1.76-.4,2,1.66,2.08,3.06C403.77,424.54,403.54,426.77,401,426Zm2.3-16.49c-2.41,5.76-7,9.55-12,13.05-.61.43-1.76,1.41-2,.85-2.16-6-5.29-.61-7.87-.65-1.47,0-3.09,1-3.21-1.41-.37-7.53-.43-15,4.11-21.61a9.59,9.59,0,0,1,10-4.24c2.1.32,2.89,1.12,1.42,3.25-2.44,3.56-4.64,7.28-7,10.93-.62,1-1.4,2-.59,3.18s2.09.47,3.18.51c2.09.07,3.36-1.21,4.55-2.64a29.43,29.43,0,0,0,4.85-8.66c.87-2.36,2.23-4.09,5.07-3.91s4.08,2,4.88,4.32c.54,1.54.81,3.18,1.62,6.48C406.43,405,404.67,406.22,403.27,409.55Zm4.13,38.81,7.46-6.92C414,446,413.13,449.15,407.4,448.36Zm15.86,10.91c-2.7,1.22-5.44,4.66-8.36,1.37-2.57-2.89.73-5.09,2.3-7.23,1.26-1.72,2.79-3.24,4.74-5.46,1,3.37,1.7,5.76,2.53,8.08C425,457.55,424.77,458.59,423.26,459.27Zm-8.92-58.7c-1.57-10.74,2.15-13.73,12.46-10.24Zm13.93-16.25-10.58,1.82c-1.91.34-2.7-.36-2.62-2.37.08-1.81.52-2.85,2.6-2.45,3.53.69,7.08,1.31,10.63,2Zm2.63,32.44c-.16-1.59,1.83-2.75,3.67-2.47a9.81,9.81,0,0,1,5.54,2.93c-1.49,1.74-2.43,4.34-4.41,4S431.15,419.16,430.9,416.76Zm13.55,21.89-5.17,6c-1.48-1.73-3-3.73-1.9-5C438.71,438.1,441.35,438.62,444.45,438.65Zm-8.89,16.07c4.44-7.4,11.71-7.37,18.27-8.79C448.82,450.56,443.48,454.52,435.56,454.72Zm20.31-42.46h-5.14c-2.42,0-5.35,2.94-6.89,1-2.73-3.43-4.33-7.77-6.3-11.78-.66-1.34.69-1.64,1.48-2.06,4.45-2.38,8.82-2.31,12.19,1.65,3,3.49,4.46,2.2,6.21-.93,1.29-2.31,3-4.4,4.37-6.65,1.17-1.86,2.38-1.11,3.78-.37,1.64.85,1.45,1.91.73,3.27-2.48,4.73-6.18,8.82-5.09,15.13C461.56,413.59,457.6,411.53,455.87,412.26Zm43.35,4.81a30.85,30.85,0,0,1-1.65,3.61c-1.42-3.21-2.64-5.61-3.56-8.12-1.13-3-2.66-2.76-4.81-1.05-3.54,2.8-5.23,6.82-7.28,10.61-3.63,6.7-8.09,12.46-16.3,14.89.09-4.81,5-9.39-.29-13.86-1.27,2.84-2.46,5.52-3.78,8.49-2.1-6.57-1.66-7.82,4.05-10.32a10.56,10.56,0,0,0,5.53-4.77c1.79-3.46,2.38-6.44-2.41-8.19-6.87-2.51-.85-5.51,0-8.18,1.28-4.15,3.4-2.12,5.4-.5,2.7,2.2,6.76,3.88,7.76,6.67s-3.71,4.88-5.07,8.29c4.28.21,6.36-2.63,8.84-5.19,1.73-1.79,1.55-6.74,6.13-4.5C497.52,407.77,500.47,412.67,499.22,417.07Z" transform="translate(-5.16 -7.51)"/>
    <path class="cls-1" d="M222.52,411.93l-.18-.12.08.15h.09S222.52,412,222.52,411.93Z" transform="translate(-5.16 -7.51)"/>
    <path class="cls-1" d="M223.42,412.57c-.29-.22-.59-.43-.9-.64,0,0,0,0,0,0h-.09c.18.31.35.62.5.94Z" transform="translate(-5.16 -7.51)"/>
    <path class="cls-1" d="M110.08,294.4l8.94,5.24c-.51-2.32-.79-3.6-1.08-4.87-1.4-6.1-1-6.62,5.17-5.54,3.08.55,4.84-.83,5.72-3.48,1.2-3.63,2.17-7.33,3.25-11,.42-1.45.76-3.27,2.83-2.62,7.26,2.28,16.25-.94,21.79,6.83.09.13.58,0,1.05,0,1.93-6.55,3.86-13.15,6.15-20.93,2.1,4.24,3.57,7.36,5.19,10.4.57,1.07,1,3.2,2.6,2.45,8.16-3.85,12.92-.5,16.69,6.78,1.45,2.81,3.23,2.43,4.06-1.24,1.59-7,4.9-8.91,12.05-7.76,1.8.29,3.6.7,5.37,1.16,3.18.82,5.77.24,7.71-2.85-9.81-6.32-20.34-.55-30.48-2.15,5.9-8.37,9.2-9.51,18-6.49a2.44,2.44,0,0,0,1.44.23c7.88-3.06,17.28-3.45,21.82-12.46a12.91,12.91,0,0,1,5.9-5.94c2.21-1.07,4.26-3.52,7-.52,2.51,2.76,3.9,5.55,1.51,8.9a104.69,104.69,0,0,1-7.12,9c-7.77,8.7-7.82,8.66,2.06,14.86,7,4.39,7,4.39,4.54,12.32-.05.14.35.42.65.76a45.18,45.18,0,0,0,4.34-2.32c3.79-2.56,7.25-3.87,9.73,1.59.34.75,1.3,2.15,2.21.92,1.86-2.52,2.6-5.39,1-8.41-1.46-2.71-3.86-4.4-6.52-2.59-3.62,2.48-6,1.09-8.73-1.18a76.08,76.08,0,0,0-8-5.95c-2.57-1.62-2.26-3-.59-5.13,3.29-4.19,6.52-8.45,9.41-12.92,2.54-3.95,2.95-8.32-.58-12-2.38-2.45-3.22-5.28-3.87-8.42-1.32-6.28-4.62-8.26-9.94-4.69-7.22,4.84-13.71,10.77-20.47,16.29a4.87,4.87,0,0,0-1.7,2.43c-1.54,7.12-7.37,7.84-13,9.41-3.85,1.07-4.89.23-5.26-3.6-.59-6.28-2-7.08-8-6.69-1.7.12-4.08,2.3-5.22-.5s-2.12-5.65.64-8.32a46.92,46.92,0,0,0,5.17-6.08c.88-1.21,3.08-2.07,1.92-4.09a5.22,5.22,0,0,0-5.08-2.63,52.21,52.21,0,0,0-6.86,1.23c-3.32.74-5.11-.31-5.15-3.93a50.76,50.76,0,0,0-.55-7c-1.23-8.27-7.55-11.43-15-7.6-4.58,2.34-7.17,6.28-9,10.93-1.57,4.08-3.26,8.37-7.8,9.83-3.67,1.18-2.49,2.72-1.3,4.91,2.15,4,4.24,8,2.31,12.78-2.44,6-6.07,7-11.16,3.29-1.47-1.07-2.7-2.77-5.12-2.92,1,6.07,2.09,11.77,2.85,17.51.24,1.85.43,4.5-1.79,5.17s-4.11-.84-5.51-2.65a9.08,9.08,0,0,1-1.07-1.69c-2.79-5.76-7.84-7-14.65-7.13,2.37,2.54,4.14,4.46,5.93,6.35.84.9,1.78,2,.29,2.84-5.16,3-6.7,7.77-6.53,13.7L86.42,268.8c-1,3.78,1.26,6.94,0,10.48-.67-.58-1.24-.83-1.32-1.19-1.68-7.5-8-9.54-14-12.1-2.55-1.1-4.71-.75-5.91,1.78s.66,4,2.65,5.11a17.85,17.85,0,0,0,6.25,1.64c1.19.15,2.8-.06,2.86,2,0,1.87-.89,2.65-2.56,3.07-3.06.77-6.22,1.26-9,3s-5.42,3-8.89,2c-5.11-1.58-2.47-5.43-2.54-8.31-.17-7.19-3.24-10.77-9.51-9.32-4.88,1.12-7-.93-8.9-4.7a46.8,46.8,0,0,1-3.52-10.89c-.54-2.43,0-3.78,3-3.56a94.12,94.12,0,0,0,10.49.18c7.43-.28,14-2.46,19-8.46,1.52-1.85,1.49-2.77-.79-4-6-3.33-12.35-3.67-18.92-3.21-2.83.2-5.71.44-8.14-1.5-1-.79-2.16-1.48-1.56-3.25,1.27-3.73,5.8-6.71,9.8-6.17,1.81.25,3.59.74,5.4.94,2.19.23,3.9-.49,4.7-2.78.9-2.57-1-3.11-2.63-4-1.39-.72-3.47-1-2.35-3.46,1.66-3.6,4-7.33,8-7.39,3.43-.06,4.37,4,5.67,6.87.45,1-.14,2.34,1.23,3.4,9.6-7,9.42-20.56,18.49-28.54,1.53,5.53-1.34,9.3-2.91,13.4-2,5.13-.64,7.39,4.24,7,7.2-.56,12-6.87,19.21-8,2.17-.35.42-5.11,1.46-7.73.75-1.9,1.46-3.69,3.3-4.81,4.22-2.59,7.41-1.22,8.4,3.58.24,1.21.13,2.62,1.59,3.57a179.91,179.91,0,0,0,14.88-16.12c2.39-3,1.24-3.88-2-4.14s-6.37-.52-9.08-2.38c-1.46-1-3.15-2.09-2.74-4.33.45-2.52,6.53-6.54,9.62-6.23,3.54.35,1.78,3.37,2.18,5.12.64,2.78,1.73,4.86,4.75,4.78a7.85,7.85,0,0,0,7.38-5.09c1.15-2.83-.4-4.59-2.94-6-6-3.28-6.18-5.16-1.26-10.17a13.42,13.42,0,0,1,9.8-4.37c4.4.08,5.69-1.11,3.59-5.18a9.73,9.73,0,0,1-.82-2.88c-.7-4.53-1.18-9.06,3-12.39,4-3.21,5.81-2.52,6.64,2.47a9.22,9.22,0,0,0,.75,2.85c.55,1,1.4,2.14,2.72,1.77,1.61-.46.9-1.94.74-2.94a39.58,39.58,0,0,0-1.72-7.77c-1.22-3.14-3.68-4.33-6.79-2.32-5.11,3.29-9.16,7.64-9.29,14-.11,5.19-.73,9.46-6.47,11.22-.82.25-1.41,1.37-2,2.15a61.29,61.29,0,0,1-19.41,16.23c-5.69,3.08-6,6.79-.66,10.49,3.23,2.26,6.77,4.07,10.44,6.25-1.74,1.39-3.24,2.44-4.54,3.68-2.68,2.54-4.92,3.46-8.29.43-3.21-2.87-7.1-2.21-10.4.79a25.39,25.39,0,0,0-5.12,7.3c-3.91,7.44-9.45,12.7-18.82,13.05.51-3.67,2.76-6.27,3.78-9.35,1.51-4.54.52-9.94-2.46-10.7-4.8-1.21-6.19,2.86-7.8,6.05-2.71,5.34-5.11,10.84-7.79,16.2-.78,1.57-1.62,3.54-3.71.62-5.77-8.05-11.51-7.76-16,1.26-4.31,8.69-11.27,13.76-19.86,17.2-2.46,1-5.88,1.53-5.59,4.76.32,3.49,1.57,7.14,6.38,8.66l-2.86-10c5.73,3.66,10.41,6.71,15.17,9.64.81.5,2.59,2.11,2.74.66.53-4.8,4.23-2.79,6.45-3.28,3.35-.73,8.14-.06,8.74,2.86.66,3.24-4,4.62-7,5.76-5.61,2.14-11.53,1.21-17.34,1.25-8.63.07-8.52,0-6.49,8.42.79,3.27,3.75,8.14,1.48,9.54-2.86,1.76-7.08-1.46-10.41-3.32-7.41-4.15-7.39-4.17-13.28,2.32l-1.36,1.47c-.49.53-.81,1.27-.11,1.68,2.92,1.71,4.76,5.74,9.39,3.85a46.9,46.9,0,0,1,9.64-2.48,11,11,0,0,1,9,2.12c1.43,1.11,2.31,2.47-.1,3.13-8.4,2.32-9.19,9.76-11.17,16.34-1,3.34.7,5.77,4.05,6.09,5.17.49,9.82-1.4,13.84-4.65,1.21-1,2.1-2.63,1-4-1.26-1.54-2.31.39-3.26,1-3.2,2.07-6.11,4.74-10.25,4.69-1.73,0-3.68,0-2.28-2.74,2.27-4.49,4.5-9,7.18-14.4,2.65,4.72,6.13,6.15,10.42,6.19a8.84,8.84,0,0,1,3.7,1.41c9.51,5.12,19,10.29,29.63,12.86a8.36,8.36,0,0,1,5.46,4.1c1,1.85,2,1.58,3.59.66,3.28-2,6.33-4.3,10-5.66,3.26-1.21,6.31-1.36,8.58,1.65s.94,6.1-1.27,8.58c-5.71,6.4-12.57,9.58-21.39,7.6a14.85,14.85,0,0,0-16.51,7.45c-2.4,4.34-.77,12.73,2.7,13.92,9.45,3.23,18.77-3.4,18.49-13.25,0-1.8-.24-3.15,2.09-3.7C99.68,313.46,107.67,306.82,110.08,294.4Zm124-67.09c1.44-.28,2.76.16,3,1.79.22,1.41-.32,2.79-1.89,3-2.39.38-4.77,1.43-7.45.57C228.48,229.13,231.06,227.91,234.11,227.31Zm-23.89,23c1.19-3.07,2.25-6.25,4.55-8.7a5.73,5.73,0,0,1,8.74.05c2.85,3.33.32,5.45-2,7.31a17.41,17.41,0,0,1-8.5,3.23C210.85,252.44,209.4,252.45,210.22,250.34Zm-53.94,21.94c-.91,1-1.78-.12-2.58-.54-1.75-.92-3.4-2-5.18-2.88-2.15-1-3-2-1.33-4.43,1.77-2.63,3-1.5,4.59-.12,1.92,1.7,4.42,2.78,5.76,5.09C157.07,270.53,156.91,271.62,156.28,272.28Zm7.06-22.86a1.4,1.4,0,0,1-1.22.32c-2.15-2.13-.2-4.57-.39-6.87a6.28,6.28,0,0,1,.4-1.84c.31.09.48.08.56.17C165.12,243.75,164.22,246.61,163.34,249.42Zm17.25-1.7c1.42-1.2,3.72-2.74,5.35-1.92,1.89.95,1.22,3.81,1.78,5.43a7,7,0,0,1-1.7,5.4,4.55,4.55,0,0,1-4,1.63c-1.82-.28-1.58-2.07-1.63-3.17C180.29,252.62,178.08,249.84,180.59,247.72Zm-9.73-21.51c2.42-.35,4.83-.74,8.5-1.31-2.15,2.86-3.66,4.75-5,6.74s-2.87.94-4.34.41a3.24,3.24,0,0,1-2.18-3.46C167.85,226.47,169.38,226.42,170.86,226.21Zm-3.28,27.53a12.2,12.2,0,0,1,6.79-2.6c2.57-.22,2.16,2.52,2.29,4.11.28,3.48-.08,7.06,3.52,9.68-5.13,2.53-8.28,1.79-9.76-3.25-.32-1.1-1-2.08-1.41-3.16C168.42,256.89,166.23,254.94,167.58,253.74Zm-9.48-48.58c3.92.11,6.57,3.41,7,8.88a51.87,51.87,0,0,1,0,6,14.24,14.24,0,0,1-.86,4.4c-2.37-5.26-1.91-11.11-3.7-17a43.63,43.63,0,0,0-11.47,7.2C150,208.82,153.84,205,158.1,205.16Zm-.18,7.15c0,5,1.13,9.23-2.36,12.07s-7.44,1.07-12.16-.23Zm.58,13.88c.43,6.06-.33,6.83-5.48,6.15a11.85,11.85,0,0,0-5.91.4c-1.84.72-3.66,1.51-5.51,2.21-.15.05-.6-.33-.69-.58-.77-2.17-1.49-4.36-2.66-7.84C145.83,229.55,152.31,232.23,158.5,226.19Zm-23.28-64.31c2.21-1.64,4.22-.09,6.15,1.68-1.69,1.37-2.85,3.77-5.32,2.13C134.9,164.93,134,162.81,135.22,161.88ZM48,271.49c-.05,2.2-.11,4.48-2.75,5.27a28.51,28.51,0,0,1-4.11.52c.82-1.88,1.33-3.1,1.89-4.3.79-1.71,1.81-3.29,3.93-3.35C48.09,269.6,48,270.7,48,271.49ZM70,290.1c2.2-2.64,4.59-4.26,7.09-4.63,1.93-.28,1.79,2.61,3.62,4.63Zm46.27-12.81a5.58,5.58,0,0,1,3.39-4.47c1.76,1.23,3,2.92,2.76,4.94a3.25,3.25,0,0,1-3.72,3.15C116.74,280.69,116,279.07,116.3,277.29Zm-3.7-3.88c-.44,4.63.2,7.93,2.92,10.6a5.12,5.12,0,0,1,.75,1.69c-.61.21-1.48.8-1.8.58-3-2-4.36-5.41-5.69-8.52C107.93,275.78,110.58,275.11,112.6,273.41Zm-30.42,7c1.84,2.5,3.29,4.48,5.19,7.08C82.07,287.42,80.66,285.42,82.18,280.41Zm18.6,9.44c-7.61-1-9.17-3-9.11-10.78,0-1.61.43-2.1,1.89-2,.33,0,.66.05,1,.05,10.83,0,12.06,1.05,15.12,13.58C106.37,290.4,103.56,290.2,100.78,289.85ZM73.11,331c-4,.63-5.18-2.29-6-5.27-1.2-4.22,1.49-6.51,4.6-8.43,1.5-.94,2,0,2.22,1.41.38,2.2.92,4.37,1.38,6.56l1.28-.09a21,21,0,0,1,.8-3.83c.48-1.19-.58-3.56,1.7-3.38a4.43,4.43,0,0,1,3.7,3.64C83.5,324.72,77.85,330.27,73.11,331Z" transform="translate(-5.16 -7.51)"/>
    <path class="cls-1" d="M312.59,146.13c10.38,1.68,20.77,2.9,31.32,2.49,3.89-.16,6.82-1.74,9.9-4.63-3.45-1.31-6.35-2.45-9.28-3.52-1.26-.46-2.84-.73-2.63-2.46.72-6.19-1.8-11.31-6.12-16.75,6.56,1.12,12,.45,17.37-.3,9.16-1.28,11-4.15,8.87-13.18a20.34,20.34,0,0,1-.77-3.4c-.11-1.92-2-4.24-.33-5.61,2-1.69,4.88-1.77,7.61-.86,3.18,1,5.28,3.37,7.42,5.71,1.73,1.91,3.13,4.19,5.69,5.56-1-9.7-10.83-16.57-20.27-14.46-5.45,1.22-6.11,2.37-4.57,7.87.45,1.6.86,3.21,1.27,4.82,1.81,7.13,0,9.8-7.35,10.74-1.15.14-2.34,0-3.49.19-4.32.6-6.39-.82-6-5.58.34-3.65,0-7.35-2.91-10.24-2-2.06-3.41-1.71-4.13,1a20.21,20.21,0,0,0-.15,9.92c1.14,4.66-.09,6.93-5.11,7.15-2.55.12-5.52,1.31-5.24,4.25.25,2.64,3.23,1.1,4.95,1.31,3.83.46,7.4,1.4,9,5.24.68,1.66,1.49,5.07-2.15,4.41-4-.74-9.42-.72-8.74-8.25-3.72,3.61-7.52,5.33-11,7.61a13.63,13.63,0,0,0-5.66,6.78C309.31,144.32,309.84,145.68,312.59,146.13Zm17-7.79c1.44.09,3.22.47,3.22,2.29,0,2.38-2.21,1.12-3.33,1.63-1.22-.15-3,.6-2.94-1.52C326.59,138.92,328,138.24,329.61,138.34Z" transform="translate(-5.16 -7.51)"/>
    <path class="cls-1" d="M375.06,300a48.7,48.7,0,0,0-3.6,8.74c-.76,2.31-1.79,3.5-4.44,3.75-5.44.5-8.48,3.93-9.95,9.09-1.88,6.59-4,8.15-10.71,7.84a16.76,16.76,0,0,0-10,2.51c-1.66,1.05-1.5,2.38-.29,3.76s2.19,1.73,3.33-.23c1.65-2.85,4.34-3.18,7.39-2.78,8.36,1.1,9.08.6,12-7.4,2.58-7.1,6.13-9.9,13.76-9.87,3.55,0,3.81-1.39,3.3-4.2-.67-3.73-.35-7.29,2.4-10.29,1.35-1.48,2.41-1.82,4.08-.26,3.81,3.54,6,7.57,4.61,12.87-1.57,6.07-2.06,12.93-10.74,14.67,2.53-5.05,4.85-9.68,7.16-14.31a27.64,27.64,0,0,0-12.12,15.77c-.49,1.55-1.46,3.69-.23,4.72,1.5,1.28,3.36-.22,4.84-1.19,4-2.65,7.77-5.75,12.22-7.69,2.17-.95,4.29-1.67,6.33.64,4.66,5.27,10.52,6.32,17,3.46,3-1.3,6-2.74,9.29-.61-.48,2.38-3.32,2.5-3.82,4.9a10.07,10.07,0,0,0,7.14-1.34c1.57-1,3-2.5,2.75-4.44-.23-1.77-2.32-1.47-3.63-2-3.93-1.63-9-1-11.42-5.75-.32-.63-1.77-1-2.69-1-3.34.05-5.15-1.64-6.25-4.64-1.19-3.2-3.6-4.93-7-4-3,.78-4.16-.48-5.13-3a37.86,37.86,0,0,0-3.91-8C383,294.13,378.24,294.3,375.06,300Z" transform="translate(-5.16 -7.51)"/>
    <path class="cls-1" d="M444.56,129.68c3,1.47,5.31-.49,7.43-2.6-2-1.61-4.66,1.48-5.61-1.15a7.89,7.89,0,0,1,1.27-7.59c1.14-1.45,2.7-3,4.47-2.89,2,.07,1.69,2.54,2.37,3.93a30.45,30.45,0,0,1,1.52,4.74c2.93,10,8.16,13.23,18.33,10.61,3.33-.85,5.5-1,7.4,2.41,1.62,2.89,4.67,2.88,7.56,1.92,2.3-.77,3.34-2.54,3.44-5,.26-6.06,5-9.45,10.87-8,3,.73,3.82,1.87,2.46,4.83-2,4.41-5.39,7.87-8.64,12.68,4.13-1.48,7.33-2.71,10.59-3.78,4.29-1.4,8.44-1.37,12.47,1.13,2.19,1.35,3,2.32.42,4.18-3.29,2.39-6.38,5.07-10,8,7.08.22,12.36-3.05,14.44-8.48,1.44-3.75.84-6.6-3.59-7.52a41.7,41.7,0,0,0-6.88-1.08c-4.52-.16-6.83-1.16-5-6.59,1.78-5.24.24-6.95-5.13-7.69-8-1.11-13.49,2.39-16.78,10.78-.37.93-.45,2-1.51,2.41s-1.57-.46-1.73-1.26c-1.33-6.76-5.35-5.52-9.87-3.53a26.1,26.1,0,0,1-6.25,1.67c-5.14.84-8.38-2.35-7.73-7.56a17.48,17.48,0,0,1,4-8.47c4.41-5.73,7.23-12.28,9.43-19.13A8.84,8.84,0,0,0,472,87c-1.93-2-3.33-2.24-4.79.66-3,6-6.26,11.74-9.36,17.63-1.28,2.44-2.83,4.53-5.63,5.29-6.15,1.68-8.47,6.52-9.89,12C441.6,125.41,441.78,128.32,444.56,129.68Z" transform="translate(-5.16 -7.51)"/>
    <path class="cls-1" d="M307.32,237.78c-.84-2.65-2.23-4.93-3.19-7.39-.73-1.89-.81-3.94,1.34-5.3,1.59-1,12.62-1.76,13.18-.57,1.33,2.84-1.08,5.21-1.59,7.86-.13.64-.22,1.29-.44,2.56,6.74-.66,9.23-5.37,11.9-10,.55-1,.34-3.36,2.91-2.09,4.62,2.28,5.52,6.37,2.08,10-1.21,1.27-4.22,2.48-2.53,4.37s3.88-.27,5.47-1.72a5.74,5.74,0,0,0,1.67-1.82c3.05-7.6,8.58-10.54,16.76-10.69,6.43-.11,8.39-4.89,5.39-10.7-1-1.92-1.86-3.91-3-5.75-.71-1.18-.73-3.35-2.65-3.1-1.5.19-2.08,1.88-2.91,3.16-5,7.78-12.58,12.16-21.45,11.16-8.13-.92-15.49.87-23.07,2.51-4.2.91-6.68,3.63-6.45,8.19S303.48,235.93,307.32,237.78ZM352,212c.93-.76,1.62-2.32,3.2-1.58a1.9,1.9,0,0,1,.74,1.6,3.47,3.47,0,0,1-2.38,2.86,5.73,5.73,0,0,1-4.16.19C349.75,213.4,351,212.76,352,212Z" transform="translate(-5.16 -7.51)"/>
    <path class="cls-1" d="M69.22,396.21c-7.37,3.4-12.64.43-18.74-5.2-1.44-1.32-2.12-3-.83-4.9,1.11-1.67,2.34-2.6,4.55-2.08A82.87,82.87,0,0,0,63,385.55c2.58.31,5.08,0,6.5-2.61,1.19-2.18,1.53-4.52,0-6.62a6.52,6.52,0,0,0-7.07-2.57c-2.7.57-5.36,1.33-8.47,2.12.62-4.49.55-8.69,3.52-12.05,4-4.54,9.63-4.37,15.27-4.68-3.38-8.13-12.61-14.05-6.68-24.69C61,336.62,60,340,61.22,344.08a65.2,65.2,0,0,0,3.56,8.77c1.12,2.36,1.3,3.58-1.85,4.53-7,2.13-11.21,7.18-11.93,14.48a24.27,24.27,0,0,1-3.3,10.26c-3.24,5.5-2.36,9.11,2.72,12.95a20.78,20.78,0,0,0,4.66,2.86c6.38,2.51,11.3,6.08,13.9,13,1.89,5,6.19,5.44,10.63,2.18a15.13,15.13,0,0,0,5.57-7.47,4.74,4.74,0,0,0-.55-4.72C81.81,397.2,73.46,394.26,69.22,396.21Zm-7.74-18.82a5,5,0,0,1,4.69.94c.92.79.07,1.53-.28,2.16a3.89,3.89,0,0,1-4.14,2.13c-1.62-.22-3.31-.51-4.47-2A7,7,0,0,1,61.48,377.39ZM70.85,407c-.46-1.22-2.19-2.42-.42-3.78a3.62,3.62,0,0,1,4.6-.1c1.91,1.46,3.63,3.18,5.73,5.06C76.51,410.92,73,412.66,70.85,407Z" transform="translate(-5.16 -7.51)"/>
    <path class="cls-1" d="M244.48,293.64c-5.12-.51-7.52-4.9-8.85-9.71-.48-1.73.36-3.71-1-5.24-6.39,3.58-6.41,3.6-2.07,8.93,4.52,5.56,11.25,9.47,11.84,17.91,3.46-2.15,3-5.67,5.51-7.6l5.33,15.58c1.75-1,2-2.43,2.48-3.62,2.08-5.44,3.84-11,7.7-15.58,1.72-2,3.66-3.56,6.46-2,3,1.67,1.37,3.94.61,6-1.57,4.36-4,8.49-3.59,13.37a4.67,4.67,0,0,0,2.4,4.12c1.83,1,3.12-.2,4.43-1.29,4.72-3.92,7.22-8.61,5.45-14.94-.39-1.37-1-3.25.3-4.22s2.85,0,4.21.69c1.6.85,3.24,1.78,5.8.27a22.85,22.85,0,0,0-3-2.43c-5.92-3.22-12.88-2.6-19.07-5.15-2.19-.91-4.57,1.45-6.21,3.48-2.5,3.09-5,6.14-8.08,9.88C253.77,295.72,249.92,294.17,244.48,293.64Zm28.23,17.2c-1.17-4.78,1.29-8.22,3.43-12.16C279.3,305,278.81,306.7,272.71,310.84Z" transform="translate(-5.16 -7.51)"/>
    <path class="cls-1" d="M211.66,132.13c-3.27,3.15-6.6,6.25-10.44,9.87,4.86,1.94,8.5,3.52,12.24,4.83,1.46.51,2.89,2,4.65.89,7.83-4.95,17.56-7.87,20-18.59.34-1.45,2.13-3.18-.66-3.95-2.29-.64-3.19.73-3.73,2.83-1.88,7.4-10.36,14.87-17.89,15.81-2.72.34-5.07-1.38-6.46-3.11s1.41-2.9,2.52-4c4.09-4.15,8.25-8.23,11.65-13,4.43-6.19,4.06-9.43-1.47-14.73-5.33-5.1-5.33-5.1-8.39,1.34l-3.77,8,.7.58c1.29-1.51,2.5-3.11,3.9-4.51,1.55-1.55,2.44-4.78,5.78-2.08,3,2.46,4.33,4.93,1.77,8.45A87.34,87.34,0,0,1,211.66,132.13Z" transform="translate(-5.16 -7.51)"/>
    <path class="cls-1" d="M336.14,397.45c2.87,1.1,5.85-1.61,8.19-3.83l1.82-1.72c.83-.78,2-1.46.62-2.76-1.15-1.07-2.26-1.35-3.44-.06-1.32,1.45-2.67,2.88-4.84,5.2-.5-5.59-.2-9.95-1.62-14.09-1.51-4.44-4.41-7-9.25-6.82-2.45.09-4.12.91-3.66,3.95s.53,6,.87,8.94.23,4.79-3.68,4.28a5.17,5.17,0,0,0-5.95,4.21c-.55,2.33,1,4.1,2.34,5.77.25.3,1.1.54,1.3.37,1.64-1.41,0-3,.16-4.56.06-.62,0-1.26,0-2.22,1.42.41,2.52.67,3.57,1.05,5.73,2.09,6.79,1.36,6.34-4.75-.26-3.47-1-6.92-1.18-10.39-.18-2.89,1.08-3.51,3.61-1.86,4.48,2.93,3.65,7.33,3.77,11.66C335.2,392.44,333.26,396.35,336.14,397.45Z" transform="translate(-5.16 -7.51)"/>
    <path class="cls-1" d="M337.85,202.52c-1.92,2.7-4.4,3.34-7.41,2-2.56-1.15-5.09-2.41-7.7-3.44-1.3-.51-3.06-1.33-3.56,1-.57,2.66,3.14,7.7,5.9,7.57,7.14-.33,14.5-.39,18.33-8.3,2-4.08,4.8-5.24,8.72-2.1,1.19.95,2.42,2.46,4.58,1.54A68.93,68.93,0,0,0,345.8,189.2c-3.37-2.7-6.48-2.44-9.38,1.31,2.81,1.12,5.63.62,8.09,2.17-.39.7-.71,1.46-1.17,2.12C341.53,197.39,339.68,200,337.85,202.52Z" transform="translate(-5.16 -7.51)"/>
    <path class="cls-1" d="M225.9,422.85c-1.19-4.09-1.67-7.22-3-10l-1.22.78-.92,4.19c.07.42.13.86.17,1.29Z" transform="translate(-5.16 -7.51)"/>
    <path class="cls-1" d="M220.9,419.17c-.12-.09-.22-.19-.34-.29l-.35,1.6-1.73,2.72a18.79,18.79,0,0,0,4.47,2.58C222.23,423.48,221.57,421.32,220.9,419.17Z" transform="translate(-5.16 -7.51)"/>
    <path class="cls-1" d="M320.13,423.21a20.6,20.6,0,0,0,4.76,13.85c.79,1,1.3,2.62,3,2.05s.95-2.25,1.26-3.44a3.8,3.8,0,0,0,0-2.09l-1.21-.36L321.31,419l-.51-.1C320,419.82,320.23,421.65,320.13,423.21Z" transform="translate(-5.16 -7.51)"/>
    <path class="cls-3" d="M329.1,433.58a3.8,3.8,0,0,1,0,2.09c-.31,1.19.32,2.9-1.26,3.44s-2.17-1.08-3-2.05a20.6,20.6,0,0,1-4.76-13.85c.1-1.56-.09-3.39.67-4.32L314,417.57c.61.7.45,2.09.75,3a14.58,14.58,0,0,1-.55,8.84c-6.47,14-13.85,27.33-27.21,36.23-2.22,1.47-2.75.57-3.64-1.08-5.93-11-11.85-22-17.86-32.92a5.22,5.22,0,0,1-.85-2.38l-8.24-2.84q7.67,11.08,15.08,22.35a14.76,14.76,0,0,1,2.81,9.42l-9.55-5.62c-1.3,2.08.42,2.94,1.32,3.89q7.74,8.16,15.61,16.19c2.85,2.92,2.88,2.89,6,.14,2.65,3.86,4.86,8.1,8,11.43,4.84,5.08,3.69,9.64.31,14.66a42.77,42.77,0,0,0-7.12,25.07c.15,9.66.66,19.31,1.3,28.94,2,30.58,3.61,61.18,6.71,91.67,2.24,22,3.73,44.14,5.07,66.25.21,3.39-.59,5-2.36,5.68l8.76.87c-3.77-1-2.3-4-2.45-6.17-1.39-19.61-2.07-39.27-3.79-58.86-1.31-14.93-4.63-29.61-4.62-44.7,0-22.18-1.91-44.29-4.34-66.31-1.8-16.2-.9-31.56,8.51-45.56,1.45-2.16,2.17-4.84,3.12-7.32,4.74-12.36,10.89-23.74,22-31.67a2.14,2.14,0,0,0,.93-2.13c-.46-5.28,2.35-9.63,4.3-14.16.69-1.6,1.39-3.9,2.94-4.68l-.69-.63ZM312.48,466a105.16,105.16,0,0,0-9.61,16.3c-1.4,2.88-2.52,2.5-3.89.12-.08-.14-.18-.28-.27-.41-2.88-4.06-7.94-8.08-8-12.19s5.95-7.42,9.3-11.06c3.12-3.4,6.57-6.5,10.35-10.19.88,3.58,1.53,6.62,3,9.44S314.27,463.57,312.48,466Zm6.82-11.22c-3.47-4.06-4.62-9-6.59-14.67C321.53,445.54,322.88,448.79,319.3,454.78Zm4.25-8.45c-3.19-3.61-5.72-7.08-6.75-11.8C323,437.06,324.72,440,323.55,446.33Z" transform="translate(-5.16 -7.51)"/>
    <path class="cls-1" d="M310,431.39l-2.26,2.69A5,5,0,0,0,310,431.39Z" transform="translate(-5.16 -7.51)"/>
    <path class="cls-3" d="M269.18,685.19c-1.75-23.07-5.28-46-5.73-69.17-.22-11.16-.53-22.29.16-33.45,1.2-19-2.15-37.92-2-56.87.17-21.67-6.45-41.58-13.25-61.6a91,91,0,0,0-13.61-25.4,64.78,64.78,0,0,1-7.34-12.44c-1.24-2.77.16-3.75,2.11-5.12,2.51-1.75,3.28.25,4.19,1.64,1.77,2.68,5.3,4.68,3.11,9-.69,1.34.93,2.64,2.91,3.74-1.26-4.31.44-6.55,4.13-7.66,1.85-.56,0-1.91-.09-1.92-4.19-.55-5.8-5.57-9-6.22-5-1-7.79-4.48-11.32-7.12l-.5.33c1.31,2.73,1.79,5.86,3,10l-5-3.69s0,0,0,.06l-.06-.05c.67,2.15,1.33,4.31,2,6.61a18.79,18.79,0,0,1-4.47-2.58l-4.12,6.47c2.82,0,5.76,1.07,9.28,3.17,4.13,2.47,6.91,6.15,9.61,10,12.57,17.9,19,38.54,21.93,59.5a501.27,501.27,0,0,1,4.94,85.74,510.59,510.59,0,0,0,3.5,76.81c1.14,9.74,2.88,19.45,2.16,29.35-.17,2.46-.56,4-2.23,4.1l5.36,2.16C269.12,695.39,269.56,690.29,269.18,685.19Z" transform="translate(-5.16 -7.51)"/>
    <path class="cls-1" d="M220.9,419.17l.06.05s0,0,0-.06l-.07-.05Z" transform="translate(-5.16 -7.51)"/>
    <path class="cls-1" d="M220.88,419.11l.07.05c0-.43-.1-.87-.17-1.29l-.22,1c.12.1.22.2.34.29Z" transform="translate(-5.16 -7.51)"/>
    <path class="cls-3" d="M251.24,437.3c2.86,2.22,5.56,3.9,4.9,8.24-.25,1.63,1.43,2.85,3.33,3.57,1.56-1.2,3-2.67,1.55-4.76-2.31-3.39-4.31-7.13-8.07-9.25-1.77-1-4.25-3.93-5.12-2.68C246.06,434.94,249.78,436.16,251.24,437.3Z" transform="translate(-5.16 -7.51)"/>
    <path class="cls-3" d="M241.39,438.18a22.76,22.76,0,0,0,7,10.45c.64.57,1.38,2.39,2.65.87.86-1,1.36-2.44-.44-3.23C246.65,444.54,244.62,440.75,241.39,438.18Z" transform="translate(-5.16 -7.51)"/>
    <path class="cls-1" d="M390.81,258.25a3.17,3.17,0,0,0,3.24-1.88c1.71-3.69,5-5.26,8.67-6.06,1.79-.39,3.95-2.52,5.41-.5s1.3,4.77.44,7.23a9.44,9.44,0,0,1-1.34,2.1c-2.22,3.14-1.64,6,.84,9.4,2.34-5.14,3.07-10.34,7.2-13.66,2.23-1.8,4-2.27,5,1.25a73.2,73.2,0,0,0,3.15,7.48l3.85-6.17c7.06,4.7,12.86,10.34,16.66,17.79,2,4,3.42,2.92,5.13-.21s2.77-6.75,4-10.2c1.28-3.66,3-7,6.24-9.43,2-1.44,3.34-1.47,4.77.91,3.29,5.46,2.59,9-3.85,15.52,7.95,2.34,11,11.24,6.27,17.52-1.94,2.57-3.39,5.16-2.16,8.81,5.26-2.13,8.48-6.2,11.91-10,1.31-1.45,3.39-2.76,2.94-5-1.57-7.59,3.49-10.28,8.95-13,2.12-1.05,2.88-.48,3.65,1.43a19,19,0,0,0,4.73,7.47c.17-3.46.2-6.09.45-8.69.67-7.06,5.54-13.38,11.1-14.56,4.53-1,6.75,1.46,5.3,5.87-.6,1.8-1.42,3.52-2.34,5.76,6.46-3.83,7.76-6.78,4.68-11.9-1.7-2.83-1.26-4.39,1-6.22a39.79,39.79,0,0,0,3.15-3.21c8.44-8.62,8.45-8.63,15.43,1,1.37,1.89,2.58,3.95,5.54,2.71-.52-2.32-2.09-3.89-3.3-5.65-8-11.55-10.69-11.69-19.41-.88a9.13,9.13,0,0,1-9.63,3.56c2.12-3.42,4.14-6.26,5.74-9.33,1.94-3.74,1.78-7.17-2.8-8.95a3.44,3.44,0,0,1-2.55-3.21,50.77,50.77,0,0,1,0-13.93c.73-4.26,2.37-6.62,7.2-5.68,1.67.33,4.38,1.24,4.65-2,.66-7.92,4.68-14.42,8.36-21.15,4.3-7.87.27-14.47-4.2-20.7-3.62-5.05-8.6-3.13-13.24-2-3.28.77-6.44,1.28-9.53-.95-.41,5-.19,5.43,3.74,5.25,4.85-.21,9.69-.79,14.69-1.22-.43,3.25-5.67,1.87-4.32,5.56,2,5.48,7.12,4.44,11.83,4.75-1.18,3.36-2.47,6.42-3.29,9.61-.91,3.49-2.53,4.88-6.35,4.14s-7.74-.22-10.73,3.62c3.18,1.05,5.84,2,8.54,2.82,1.91.58,2.31,1.53,2.1,3.65-.47,4.66-2.2,5.57-6.26,3.35-2-1.11-4.74-2.78-5,1.91-.71,12.11-4.49,23.45-8.74,34.7-3.69,9.76-3.44,9.85,5.7,14.1.21.09.28.47.46.81-3.07,4.12-6.16,8.25-9.23,12.38-.94,1.26-2,2.42-3.73,1.68s-1.25-2.43-1.06-3.91c.32-2.44,1-4.87.29-7.67L475.05,259c-.5-2.94,2.35-3.63,2.49-6.16-3.62-.75-7.33-1.4-11-2.34-1.26-.32-3.46.52-3.59-1.66-.08-1.5,1.25-2.66,2.43-3.61a7.48,7.48,0,0,1,6.16-1.37c2.62.45,5.19,1.18,7.77,1.81,4.33,1.06,8.71,1.83,12-2.2s4.81-9,2.22-14c-1.61-3.08-1.22-5.23.58-8.07,5-7.86,6-16.12,3-22.26-3.29,4.4-7.65,7.47-11.59,11-2.93,2.62-6.45,4.53-10.49,3.43-3.58-1-6.14.41-8.67,2.44-7,5.59-8.81,13-7.52,21.48.24,1.58,1.71,3.66-1,4.69l-10.14,3.89c-1.61-2.43-.47-6.7-2.7-6.39-4.59.63-4.49-2-5-4.76a3.55,3.55,0,0,0-2.24-3.06c-2-.66-2.2,1.23-2.59,2.28-.87,2.28-2.08,2-3.88,1.18-4.66-2.06-8.18-5.68-12.23-8.57-5.84-4.16-9.25-2.94-11.39,4-.87,2.84-.61,6.5-2.92,8.35-5.91,4.72-9,12.09-15.48,16.15-.86.53-1.8,1.16-1.41,2.34C388.43,259.45,389.81,258.23,390.81,258.25ZM502.9,238.92c.16-2.92,4.11-6.76,6.6-6.43,1.84.24,1.06,1.69,1.23,2.5,0,4.15-2.51,5.6-5.88,6.28C502.69,241.72,502.82,240.29,502.9,238.92Zm-24.64,23.89c-2.2,4.61-4.11,8.52,3.24,9.22l-9.31,7.22C467.31,271.09,468.5,267.33,478.26,262.81Zm6.74-48c2.82-1.94,5.66-3.85,8.62-5.87,1.29,2.8.54,5.1.18,7.32-.38,2.38-1.6,5-4,5.25s-3.85-2.74-5.64-4.36C483.13,216.16,484.16,215.37,485,214.8Zm-12.09,9.46s0-.07,0-.1L468,226c-.32-3.56,0-7.2,4.1-6.93,3.18.2.08,3.32.76,5l.22-.08-.06.23c.88.36,1.78.68,2.62,1.12,7.51,4,7.79,5.18,4.07,13-1.26,2.64-3.34,2-5.09,1.71-2.63-.36-6.26,1.61-7.72-1.43s.89-6,2.79-8.56c1.33-1.8,2.8-3.54,3.33-5.8Zm-15.46,22.29c-3.33,6.16-4.32,6.47-9.51,2.61ZM410,235a5.1,5.1,0,0,1,.79-1.8c1.4-1.93.62-5.89,3.81-5.84s6.15,6.1,5.52,9.45c-.23,1.26-.4,2.53-.59,3.8l.05,0v0c2.5-2.43,4.83-1,7.06.51,8.13,5.49,15.9,11.53,24.79,15.8,1.2.57,1.44,1.09.91,2.25-1.79,3.88-3.53,7.8-5.57,12.35-2.32-4.56-4.8-7.74-9.39-9.05-1.72-.5-2.87-3.08-4.22-4.75-2.12-2.6-4.08-5.09-8.09-5a3.68,3.68,0,0,1-3.85-4.63c.84-3-.72-5.1-1.64-7.5l-.07.06s0-.07,0-.11c-1.6-1.11-2.65.59-4,.87-2.58.56-3.87-1.48-5.6-2.54C408.05,237.78,409.67,236.32,410,235Z" transform="translate(-5.16 -7.51)"/>
</svg>
